<svg width="80" height="80" viewBox="0 0 80 80" fill="none" xmlns="http://www.w3.org/2000/svg">
<g filter="url(#filter0_i_3117_247979)">
<path d="M18.0952 0H61.9048C71.9048 0 80 8.09524 80 18.0952V61.9048C80 71.9048 71.9048 80 61.9048 80H18.0952C8.09524 80 0 71.9048 0 61.9048V18.0952C0 8.09524 8.09524 0 18.0952 0Z" fill="url(#paint0_linear_3117_247979)"/>
<path fill-rule="evenodd" clip-rule="evenodd" d="M36.9429 30.9571C37.3923 31.2574 37.9207 31.4177 38.4612 31.4177C39.186 31.4177 39.8811 31.1298 40.3936 30.6173C40.9061 30.1048 41.194 29.4097 41.194 28.6849C41.194 28.1444 41.0338 27.616 40.7335 27.1666C40.4332 26.7172 40.0064 26.3669 39.507 26.16C39.0076 25.9532 38.4582 25.8991 37.928 26.0045C37.3979 26.11 36.911 26.3703 36.5288 26.7525C36.1466 27.1346 35.8863 27.6216 35.7809 28.1517C35.6754 28.6818 35.7295 29.2313 35.9364 29.7307C36.1432 30.23 36.4935 30.6569 36.9429 30.9571ZM23.2123 30.9571C23.6617 31.2574 24.1901 31.4177 24.7306 31.4177C25.4554 31.4177 26.1505 31.1298 26.663 30.6173C27.1755 30.1048 27.4634 29.4097 27.4634 28.6849C27.4634 28.1444 27.3032 27.616 27.0029 27.1666C26.7026 26.7172 26.2758 26.3669 25.7764 26.16C25.277 25.9532 24.7276 25.8991 24.1974 26.0045C23.6673 26.11 23.1804 26.3703 22.7982 26.7525C22.416 27.1346 22.1557 27.6216 22.0503 28.1517C21.9448 28.6818 21.9989 29.2313 22.2058 29.7307C22.4126 30.23 22.7629 30.6569 23.2123 30.9571ZM11 34.1779C11 24.6871 20.2214 17 31.5978 17C41.8733 17 50.3881 23.2699 51.9419 31.4763C51.571 31.445 51.2119 31.445 50.8215 31.445C40.4484 31.445 32.0351 38.4489 32.039 47.0964C32.0412 48.5264 32.2759 49.9465 32.7339 51.3011C32.3591 51.3284 31.9922 51.3284 31.6017 51.3284C29.3279 51.3301 27.065 51.0134 24.8789 50.3876C24.6828 50.3277 24.4789 50.2974 24.2738 50.2978C23.8851 50.3027 23.5049 50.4119 23.1729 50.614L18.6598 53.218C18.5425 53.2924 18.408 53.3354 18.2694 53.3429C18.1793 53.3434 18.0901 53.3262 18.0067 53.2921C17.9234 53.258 17.8476 53.2077 17.7837 53.1442C17.7199 53.0807 17.6692 53.0052 17.6346 52.9221C17.6001 52.8389 17.5823 52.7498 17.5823 52.6597C17.5972 52.4879 17.634 52.3187 17.6916 52.1561C17.7144 52.0747 18.1038 50.6219 18.434 49.39C18.4997 49.1448 18.5631 48.9083 18.6207 48.6932C18.665 48.5514 18.6899 48.4044 18.6949 48.2559C18.6947 48.0372 18.6421 47.8217 18.5416 47.6275C18.4411 47.4332 18.2955 47.2659 18.1171 47.1394C13.7758 43.9927 11 39.3352 11 34.1779ZM55.2737 44.4193C55.6499 44.6707 56.0923 44.8048 56.5447 44.8048C57.1515 44.8048 57.7334 44.5638 58.1624 44.1348C58.5915 43.7057 58.8325 43.1238 58.8325 42.5171C58.8325 42.0646 58.6983 41.6223 58.447 41.246C58.1956 40.8698 57.8383 40.5766 57.4202 40.4034C57.0022 40.2303 56.5422 40.185 56.0984 40.2732C55.6546 40.3615 55.247 40.5794 54.927 40.8994C54.6071 41.2193 54.3892 41.627 54.3009 42.0707C54.2126 42.5145 54.2579 42.9745 54.4311 43.3926C54.6043 43.8106 54.8975 44.1679 55.2737 44.4193ZM43.8281 44.4174C44.2038 44.6692 44.6457 44.8041 45.098 44.8048C45.3988 44.8054 45.6967 44.7466 45.9747 44.6318C46.2527 44.5171 46.5054 44.3486 46.7183 44.1362C46.9311 43.9237 47.1 43.6713 47.2152 43.3935C47.3304 43.1156 47.3897 42.8178 47.3897 42.5171C47.3897 42.0648 47.2556 41.6226 47.0044 41.2465C46.7532 40.8703 46.3961 40.5771 45.9783 40.4038C45.5605 40.2305 45.1007 40.185 44.657 40.273C44.2134 40.3609 43.8057 40.5784 43.4856 40.898C43.1655 41.2175 42.9473 41.6248 42.8586 42.0684C42.7699 42.5119 42.8146 42.9718 42.9872 43.3899C43.1597 43.808 43.4524 44.1655 43.8281 44.4174ZM67.9993 47.0965C67.9993 51.4027 65.6568 55.2834 62.0534 57.9069H62.0456C61.8969 58.0128 61.7757 58.1528 61.6922 58.3151C61.6086 58.4774 61.5651 58.6574 61.5654 58.84C61.5687 58.9634 61.5897 59.0856 61.6278 59.203C61.8336 59.9501 62.1181 61.0088 62.2811 61.6152C62.3532 61.8833 62.4015 62.063 62.4086 62.0881C62.4556 62.2232 62.4858 62.3635 62.4984 62.5059C62.499 62.5811 62.4846 62.6556 62.4562 62.7252C62.4278 62.7948 62.3859 62.8581 62.3329 62.9115C62.2799 62.9648 62.2169 63.0071 62.1475 63.036C62.0781 63.0649 62.0036 63.0798 61.9284 63.0798C61.8098 63.0752 61.6948 63.0373 61.5966 62.9705L57.8409 60.8037C57.5659 60.6345 57.2502 60.5428 56.9273 60.5382C56.7564 60.5382 56.5866 60.5645 56.4237 60.6163C54.6019 61.1367 52.7161 61.3996 50.8214 61.3971C41.3267 61.3971 33.6435 54.9984 33.6435 47.0965C33.6435 39.1947 41.3306 32.792 50.8214 32.792C60.3122 32.792 67.9993 39.1947 67.9993 47.0965Z" fill="white"/>
</g>
<defs>
<filter id="filter0_i_3117_247979" x="0" y="-1" width="80" height="81" filterUnits="userSpaceOnUse" color-interpolation-filters="sRGB">
<feFlood flood-opacity="0" result="BackgroundImageFix"/>
<feBlend mode="normal" in="SourceGraphic" in2="BackgroundImageFix" result="shape"/>
<feColorMatrix in="SourceAlpha" type="matrix" values="0 0 0 0 0 0 0 0 0 0 0 0 0 0 0 0 0 0 127 0" result="hardAlpha"/>
<feOffset dy="-1"/>
<feGaussianBlur stdDeviation="0.5"/>
<feComposite in2="hardAlpha" operator="arithmetic" k2="-1" k3="1"/>
<feColorMatrix type="matrix" values="0 0 0 0 0 0 0 0 0 0 0 0 0 0 0 0 0 0 0.12 0"/>
<feBlend mode="normal" in2="shape" result="effect1_innerShadow_3117_247979"/>
</filter>
<linearGradient id="paint0_linear_3117_247979" x1="40" y1="0" x2="40" y2="80" gradientUnits="userSpaceOnUse">
<stop stop-color="#00DF62"/>
<stop offset="1" stop-color="#0ABB56"/>
</linearGradient>
</defs>
</svg>
