<svg width="80" height="80" viewBox="0 0 80 80" fill="none" xmlns="http://www.w3.org/2000/svg">
<g filter="url(#filter0_i)">
<path d="M18.0952 0H61.9048C71.9048 0 80 8.09524 80 18.0952V61.9048C80 71.9048 71.9048 80 61.9048 80H18.0952C8.09524 80 0 71.9048 0 61.9048V18.0952C0 8.09524 8.09524 0 18.0952 0Z" fill="#1DA1F2"/>
<path d="M30.1492 61.1628C49.3872 61.1628 59.9077 45.2374 59.9077 31.4275C59.9077 30.9752 59.8985 30.5249 59.8781 30.0766C61.9203 28.6014 63.6953 26.7605 65.0953 24.6649C63.2213 25.4972 61.2046 26.0576 59.089 26.3102C61.2484 25.0164 62.9062 22.9697 63.6883 20.5298C61.6675 21.7269 59.4296 22.5969 57.0469 23.0666C55.1383 21.0353 52.4211 19.7647 49.4124 19.7647C43.6365 19.7647 38.9528 24.445 38.9528 30.2141C38.9528 31.0342 39.0445 31.8319 39.224 32.5971C30.5313 32.16 22.8233 28.0014 17.6647 21.678C16.7664 23.2224 16.2485 25.0164 16.2485 26.9307C16.2485 30.5565 18.095 33.7574 20.9028 35.6299C19.1869 35.577 17.5749 35.1063 16.166 34.3229C16.1645 34.3667 16.1645 34.4095 16.1645 34.4563C16.1645 39.5176 19.7697 43.7434 24.5554 44.701C23.6766 44.9404 22.7519 45.0687 21.7975 45.0687C21.1246 45.0687 20.469 45.0026 19.8318 44.8803C21.1633 49.0327 25.0245 52.0545 29.6022 52.1389C26.0225 54.9425 21.513 56.6124 16.612 56.6124C15.7688 56.6124 14.9359 56.5644 14.1172 56.4677C18.746 59.4323 24.2424 61.1622 30.1498 61.1622" fill="white"/>
</g>
<defs>
<filter id="filter0_i" x="0" y="-1" width="80" height="81" filterUnits="userSpaceOnUse" color-interpolation-filters="sRGB">
<feFlood flood-opacity="0" result="BackgroundImageFix"/>
<feBlend mode="normal" in="SourceGraphic" in2="BackgroundImageFix" result="shape"/>
<feColorMatrix in="SourceAlpha" type="matrix" values="0 0 0 0 0 0 0 0 0 0 0 0 0 0 0 0 0 0 127 0" result="hardAlpha"/>
<feOffset dy="-1"/>
<feGaussianBlur stdDeviation="0.5"/>
<feComposite in2="hardAlpha" operator="arithmetic" k2="-1" k3="1"/>
<feColorMatrix type="matrix" values="0 0 0 0 0 0 0 0 0 0 0 0 0 0 0 0 0 0 0.12 0"/>
<feBlend mode="normal" in2="shape" result="effect1_innerShadow"/>
</filter>
</defs>
</svg>
