<svg width="80" height="80" viewBox="0 0 80 80" fill="none" xmlns="http://www.w3.org/2000/svg">
<g filter="url(#filter0_i)">
<path d="M18.0952 0H61.9048C71.9048 0 80 8.09524 80 18.0952V61.9048C80 71.9048 71.9048 80 61.9048 80H18.0952C8.09524 80 0 71.9048 0 61.9048V18.0952C0 8.09524 8.09524 0 18.0952 0Z" fill="url(#paint0_linear)"/>
<path d="M11.7656 68.2354C11.9539 67.4825 12.1421 66.9178 12.2362 66.3531C13.3656 62.4001 14.4009 58.4472 15.4362 54.4942C15.5303 54.1178 15.5303 53.6472 15.3421 53.3648C13.3656 49.8825 12.3303 46.1178 11.9539 42.0707C11.5774 37.7413 12.2362 33.506 13.8362 29.4589C16.3774 23.2472 20.6127 18.5413 26.448 15.2472C30.2127 13.1766 34.2597 12.0472 38.5892 11.8589C46.0244 11.5766 52.5186 13.7413 58.1656 18.6354C63.3421 23.1531 66.6362 28.8001 67.5774 35.5766C68.8009 43.9531 66.7303 51.3884 61.2715 57.8825C56.6597 63.3413 50.7303 66.6354 43.5774 67.5766C38.0244 68.3295 32.6597 67.5766 27.5774 64.9413C26.7303 64.5648 26.0715 64.4707 25.1303 64.6589C20.9892 65.7883 16.848 66.8236 12.7068 67.9531C12.6127 68.0472 12.2362 68.1413 11.7656 68.2354ZM39.3421 16.3766C38.5892 16.4707 37.0833 16.5648 35.6715 16.7531C30.4009 17.7884 25.8833 20.3295 22.3068 24.3766C18.1656 29.1766 16.1892 34.8236 16.5656 41.1295C16.7539 45.2707 18.0715 49.0354 20.3303 52.5178C20.5186 52.8001 20.5186 53.1766 20.4244 53.5531C19.8597 55.7178 19.295 57.8825 18.6362 60.0472C18.5421 60.4236 18.448 60.706 18.3539 61.0825C18.3539 61.1766 18.6362 61.4589 18.7303 61.4589C18.9186 61.4589 19.2009 61.3648 19.4833 61.2707C21.7421 60.706 24.095 60.0472 26.3539 59.4825C26.8244 59.3884 27.3892 59.4825 27.7656 59.6707C32.2833 62.306 37.1774 63.4354 42.3539 62.8707C48.7539 62.2119 54.0244 59.2942 57.9774 54.4001C61.8362 49.6001 63.6244 44.1413 63.1539 37.9295C62.7774 32.5648 60.8009 27.8589 57.1303 23.906C52.7068 19.0119 46.8715 16.4707 39.3421 16.3766Z" fill="white"/>
<path d="M47.3429 53.1765C45.1782 53.2706 43.2958 52.4235 41.4135 51.6706C38.1194 50.447 35.2959 48.3765 32.8488 45.8353C30.6841 43.6706 28.7076 41.3176 27.2958 38.5882C25.8841 36.1412 25.3194 33.5059 26.2606 30.7765C26.7311 29.4588 27.5782 28.3294 28.6135 27.3882C29.6488 26.5412 30.8723 26.7294 32.0958 27.0117C32.3782 27.1059 32.5664 27.3882 32.7547 27.6706C33.6017 29.5529 34.4488 31.4353 35.2017 33.4117C35.39 33.7882 35.2958 34.3529 35.0135 34.7294C34.637 35.3882 34.0723 36.047 33.5076 36.6117C32.8488 37.3647 32.7547 37.647 33.3194 38.4941C35.5782 42.3529 38.7782 45.0823 42.9194 46.6823C43.4841 46.8706 43.8606 46.7765 44.237 46.4C44.8958 45.5529 45.6488 44.7059 46.3076 43.9529C46.8723 43.2 47.1547 43.1059 48.0958 43.4823C48.8488 43.7647 49.5076 44.1412 50.2606 44.4235C51.2959 44.8941 52.3311 45.4588 53.3664 45.9294C54.0253 46.2117 54.2135 46.7765 54.2135 47.4353C53.9311 50.6353 51.39 52.9882 48.0958 53.0823C47.8135 53.1765 47.5311 53.1765 47.3429 53.1765Z" fill="white"/>
</g>
<defs>
<filter id="filter0_i" x="0" y="-1" width="80" height="81" filterUnits="userSpaceOnUse" color-interpolation-filters="sRGB">
<feFlood flood-opacity="0" result="BackgroundImageFix"/>
<feBlend mode="normal" in="SourceGraphic" in2="BackgroundImageFix" result="shape"/>
<feColorMatrix in="SourceAlpha" type="matrix" values="0 0 0 0 0 0 0 0 0 0 0 0 0 0 0 0 0 0 127 0" result="hardAlpha"/>
<feOffset dy="-1"/>
<feGaussianBlur stdDeviation="0.5"/>
<feComposite in2="hardAlpha" operator="arithmetic" k2="-1" k3="1"/>
<feColorMatrix type="matrix" values="0 0 0 0 0 0 0 0 0 0 0 0 0 0 0 0 0 0 0.12 0"/>
<feBlend mode="normal" in2="shape" result="effect1_innerShadow"/>
</filter>
<linearGradient id="paint0_linear" x1="40" y1="0" x2="40" y2="80" gradientUnits="userSpaceOnUse">
<stop stop-color="#00FF6A"/>
<stop offset="1" stop-color="#00D31D"/>
</linearGradient>
</defs>
</svg>
